# xmcd CD database file
#
# Track frame offsets:
#	150
#	10671
#	28143
#	49299
#	71898
#	93241
#	112013
#	132956
#	152181
#	179929
#	198309
#	222252
#	238306
#
# Disc length: 3470 seconds
#
# Revision: 0
# Processed by: cddbd v1.5.1PL0 Copyright (c) Steve Scherf et al.
# Submitted via: CDex 1.51
#
DISCID=c60d8c0d
DTITLE=Janet Planet - Jazzed For You
DYEAR=1900
DGENRE=Jazz
TTITLE0=On a Wonderfull Day
TTITLE1=Waters Of March
TTITLE2=Did You Ever Cross Over To Snedens
TTITLE3=I Believe in Me
TTITLE4=One Lesss Lonely Girl
TTITLE5=If I Knew the Way
TTITLE6=Let's Pretend We're Alone
TTITLE7=Watch Over You
TTITLE8=Common Ground
TTITLE9=Blues In The Night
TTITLE10=Breath Away
TTITLE11=Amazing Grace
TTITLE12=For All We Know
EXTD=
EXTT0=
EXTT1=
EXTT2=
EXTT3=
EXTT4=
EXTT5=
EXTT6=
EXTT7=
EXTT8=
EXTT9=
EXTT10=
EXTT11=
EXTT12=
PLAYORDER=
